<?xml version="1.0" encoding="utf-8"?>
<!-- Generator: Adobe Illustrator 25.4.1, SVG Export Plug-In . SVG Version: 6.00 Build 0)  -->
<svg version="1.1" id="Layer_1" xmlns="http://www.w3.org/2000/svg" xmlns:xlink="http://www.w3.org/1999/xlink" x="0px" y="0px"
	 viewBox="0 0 600 112" style="enable-background:new 0 0 600 112;" xml:space="preserve">
<style type="text/css">
	.st0{fill:#353535;}
	.st1{fill:none;stroke:#353535;stroke-width:5;stroke-miterlimit:10;}
</style>
<g>
	<path class="st0" d="M214.04,68.2c-2.19-0.85-4.09-2.1-5.7-3.75l2.8-4.76l0.26-0.59l0.46,0.26c0.09,0.3,0.21,0.64,0.36,1.01
		c0.15,0.37,0.47,0.81,0.94,1.33c1.13,0.91,2.41,1.64,3.84,2.18c1.43,0.54,3.04,0.81,4.82,0.81c1.17,0,2.24-0.16,3.19-0.48
		s1.79-0.76,2.51-1.32c0.72-0.56,1.27-1.22,1.66-2s0.59-1.61,0.59-2.51c0-0.69-0.08-1.32-0.23-1.88c-0.15-0.56-0.42-1.08-0.81-1.55
		c-0.39-0.47-0.91-0.95-1.56-1.43c-0.65-0.47-1.5-0.99-2.54-1.55c-1.04-0.56-2.3-1.17-3.78-1.81c-2.78-1.12-4.98-2.31-6.61-3.56
		c-1.63-1.25-2.79-2.59-3.49-4.01c-0.7-1.42-1.04-2.96-1.04-4.6c0-1.99,0.52-3.73,1.56-5.24c1.04-1.51,2.51-2.7,4.4-3.56
		c1.89-0.86,4.09-1.29,6.61-1.29c1.56,0,3.05,0.21,4.46,0.62c1.41,0.41,2.73,0.99,3.94,1.73c1.22,0.74,2.3,1.67,3.26,2.8l-3.13,3.91
		l-0.39,0.52l-0.46-0.33c-0.04-0.35-0.13-0.69-0.26-1.04c-0.13-0.35-0.44-0.78-0.91-1.3c-0.96-0.91-1.98-1.53-3.06-1.86
		c-1.09-0.33-2.39-0.49-3.91-0.49c-1,0-1.9,0.13-2.7,0.39c-0.8,0.26-1.49,0.65-2.05,1.16c-0.57,0.52-1.01,1.09-1.34,1.72
		c-0.33,0.62-0.49,1.28-0.49,1.97s0.09,1.31,0.26,1.84c0.17,0.54,0.46,1.07,0.85,1.58c0.39,0.52,0.94,1.05,1.66,1.59
		c0.72,0.54,1.63,1.08,2.74,1.62c1.11,0.54,2.44,1.13,4.01,1.78c2.04,0.86,3.74,1.7,5.08,2.52c1.35,0.82,2.4,1.69,3.16,2.62
		c0.76,0.93,1.31,1.92,1.66,2.98c0.35,1.06,0.52,2.25,0.52,3.59c0,1.86-0.48,3.69-1.43,5.5c-0.96,1.81-2.45,3.29-4.5,4.43
		c-2.04,1.14-4.69,1.71-7.95,1.71C218.66,69.47,216.24,69.04,214.04,68.2z"/>
	<path class="st0" d="M267.31,69.47c-3.17,0-5.85-0.8-8.05-2.4c-2.19-1.6-3.87-3.96-5.02-7.08c-1.15-3.12-1.73-6.88-1.73-11.3
		c0-4.33,0.58-8.04,1.73-11.14c1.15-3.1,2.82-5.48,5.02-7.15c2.19-1.67,4.88-2.5,8.05-2.5c3.17,0,5.84,0.83,8.01,2.5
		c2.17,1.67,3.83,4.05,4.98,7.15c1.15,3.09,1.73,6.81,1.73,11.14c0,4.42-0.58,8.19-1.73,11.3c-1.15,3.12-2.81,5.48-4.98,7.08
		C273.15,68.67,270.48,69.47,267.31,69.47z M267.31,64.84c1.91,0,3.55-0.62,4.92-1.85s2.41-3.05,3.13-5.45
		c0.72-2.4,1.08-5.35,1.08-8.86c0-3.33-0.36-6.2-1.08-8.6c-0.72-2.4-1.76-4.25-3.13-5.55c-1.37-1.3-3.01-1.95-4.92-1.95
		s-3.56,0.65-4.95,1.95c-1.39,1.3-2.44,3.15-3.16,5.55c-0.72,2.4-1.08,5.27-1.08,8.6c0,3.5,0.36,6.46,1.08,8.86
		c0.72,2.4,1.77,4.22,3.16,5.45C263.75,64.23,265.4,64.84,267.31,64.84z"/>
	<path class="st0" d="M299.56,28.16h5.47L321,57.15l-0.13-28.99h5.08h0.65v0.52c-0.26,0.26-0.42,0.54-0.49,0.85
		c-0.06,0.3-0.1,0.82-0.1,1.56v37.66h-4.69L304.64,38v30.75h-5.08V28.16z"/>
	<path class="st0" d="M351.69,66.94c-2.39-1.69-4.23-4.07-5.51-7.17c-1.28-3.09-1.92-6.69-1.92-10.8c0-3.46,0.34-6.41,1.01-8.85
		c0.67-2.44,1.6-4.46,2.77-6.06c1.17-1.6,2.47-2.85,3.88-3.76c1.41-0.91,2.82-1.53,4.24-1.88c1.41-0.35,2.7-0.52,3.88-0.52
		c1.69,0,3.32,0.29,4.89,0.88s3,1.38,4.3,2.38s2.32,2.21,3.06,3.65l-3.52,3.13l-0.52,0.46L367.91,38c0.04-0.35,0-0.67-0.13-0.98
		c-0.13-0.3-0.44-0.74-0.91-1.3c-0.61-0.69-1.24-1.27-1.89-1.73c-0.65-0.46-1.38-0.79-2.18-1.01c-0.8-0.22-1.71-0.33-2.7-0.33
		c-1.13,0-2.21,0.15-3.22,0.45c-1.02,0.3-1.97,0.83-2.84,1.59c-0.87,0.76-1.63,1.73-2.28,2.92s-1.15,2.65-1.5,4.4
		c-0.35,1.75-0.52,3.79-0.52,6.12c0,2.72,0.24,5.12,0.72,7.19c0.48,2.07,1.18,3.81,2.12,5.21c0.93,1.4,2.04,2.46,3.32,3.17
		c1.28,0.71,2.72,1.07,4.33,1.07c0.57,0,1.16-0.03,1.79-0.1c0.63-0.06,1.26-0.19,1.89-0.39c0.63-0.19,1.24-0.44,1.82-0.74
		c0.59-0.3,1.14-0.65,1.66-1.04v-8.87h-7.17v-4.69h12.19v16.3c-1.91,1.43-3.9,2.49-5.96,3.18c-2.06,0.69-4.14,1.04-6.22,1.04
		C356.92,69.47,354.08,68.63,351.69,66.94z"/>
	<path class="st0" d="M395.96,68.26c-2.37-0.8-4.33-2.03-5.9-3.68l3.58-6.06l0.26-0.52l0.59,0.33c0.09,0.3,0.2,0.63,0.36,0.98
		c0.15,0.35,0.49,0.76,1.01,1.24c1.09,0.83,2.29,1.49,3.62,1.99c1.32,0.5,2.77,0.77,4.33,0.81c1,0,1.92-0.11,2.77-0.32
		c0.85-0.21,1.57-0.53,2.18-0.96c0.61-0.43,1.09-0.97,1.43-1.63c0.35-0.66,0.52-1.42,0.52-2.27c0-0.52-0.06-1.01-0.19-1.48
		c-0.13-0.47-0.36-0.94-0.68-1.39c-0.33-0.45-0.79-0.9-1.4-1.36c-0.61-0.45-1.37-0.95-2.28-1.49c-0.91-0.54-2.06-1.11-3.45-1.71
		c-2.78-1.21-4.98-2.43-6.61-3.68c-1.63-1.25-2.79-2.58-3.49-4c-0.7-1.42-1.04-3.03-1.04-4.84c0-1.98,0.55-3.74,1.66-5.29
		c1.11-1.55,2.64-2.77,4.59-3.68c1.95-0.9,4.19-1.36,6.71-1.36c1.7,0,3.28,0.19,4.76,0.59c1.48,0.39,2.84,0.97,4.11,1.73
		c1.26,0.76,2.41,1.73,3.45,2.9l-4.3,4.95l-0.39,0.46l-0.52-0.39c-0.04-0.35-0.12-0.68-0.23-1.01c-0.11-0.33-0.4-0.75-0.88-1.27
		c-0.83-0.78-1.71-1.3-2.64-1.56c-0.93-0.26-2.03-0.39-3.29-0.39c-0.91,0-1.72,0.11-2.41,0.32c-0.69,0.21-1.29,0.51-1.79,0.9
		c-0.5,0.39-0.89,0.83-1.17,1.32c-0.28,0.5-0.42,1-0.42,1.51c0,0.52,0.06,1,0.19,1.45c0.13,0.45,0.36,0.89,0.68,1.32
		c0.33,0.43,0.8,0.87,1.43,1.32c0.63,0.45,1.44,0.94,2.44,1.45c1,0.52,2.24,1.1,3.71,1.74c2.04,0.94,3.76,1.86,5.15,2.74
		c1.39,0.88,2.49,1.8,3.29,2.77c0.8,0.97,1.38,2.02,1.73,3.16c0.35,1.14,0.52,2.42,0.52,3.83c0,1.93-0.5,3.8-1.5,5.61
		c-1,1.8-2.56,3.28-4.69,4.42c-2.13,1.14-4.87,1.71-8.21,1.71C400.86,69.47,398.33,69.07,395.96,68.26z"/>
	<path class="st0" d="M445.32,68.27c-1.95-0.8-3.68-2.04-5.18-3.72c-1.5-1.68-2.66-3.82-3.49-6.43c-0.83-2.61-1.24-5.7-1.24-9.28
		c0-3.15,0.33-5.9,0.98-8.28c0.65-2.37,1.53-4.36,2.64-5.98c1.11-1.62,2.37-2.92,3.78-3.91c1.41-0.99,2.89-1.7,4.43-2.13
		c1.54-0.43,3.07-0.65,4.59-0.65c3.08,0,5.7,0.69,7.85,2.08c2.15,1.39,3.81,3.35,4.98,5.86l-4.63,3.45l-0.52,0.33l-0.33-0.52
		c0.04-0.35,0.01-0.67-0.1-0.98c-0.11-0.3-0.34-0.76-0.68-1.37c-0.96-1.17-1.94-1.95-2.97-2.35c-1.02-0.39-2.1-0.59-3.22-0.59
		c-1.26,0-2.45,0.31-3.58,0.93c-1.13,0.62-2.15,1.56-3.06,2.8c-0.91,1.25-1.62,2.78-2.12,4.61c-0.5,1.83-0.75,3.94-0.75,6.35
		c0,2.32,0.23,4.39,0.68,6.22c0.46,1.83,1.09,3.38,1.89,4.67c0.8,1.29,1.76,2.28,2.87,2.96c1.11,0.69,2.31,1.03,3.62,1.03
		c1.04,0,2.01-0.15,2.9-0.46c0.89-0.3,1.7-0.78,2.44-1.43c0.74-0.65,1.41-1.52,2.02-2.61l5.08,3.78c-1.52,2.43-3.3,4.17-5.34,5.21
		c-2.04,1.04-4.47,1.56-7.3,1.56C449.36,69.47,447.27,69.07,445.32,68.27z"/>
	<path class="st0" d="M495.42,69.47c-3.34,0-6.14-0.82-8.37-2.45c-2.24-1.64-3.93-4-5.08-7.1c-1.15-3.1-1.73-6.86-1.73-11.3
		c0-4.35,0.58-8.06,1.73-11.14c1.15-3.08,2.84-5.44,5.08-7.1c2.24-1.66,5.03-2.48,8.37-2.48c3.3,0,6.07,0.83,8.31,2.48
		c2.24,1.66,3.93,4.03,5.08,7.1c1.15,3.08,1.73,6.79,1.73,11.14c0,4.43-0.58,8.21-1.73,11.33c-1.15,3.12-2.85,5.49-5.08,7.1
		C501.49,68.66,498.72,69.47,495.42,69.47z M495.42,63.47c1.65,0,3.05-0.55,4.2-1.64c1.15-1.09,2.04-2.74,2.67-4.95
		c0.63-2.21,0.94-4.98,0.94-8.33c0-3.13-0.32-5.79-0.94-7.97c-0.63-2.19-1.52-3.85-2.67-4.98c-1.15-1.14-2.55-1.7-4.2-1.7
		c-1.65,0-3.06,0.57-4.24,1.7c-1.17,1.14-2.07,2.8-2.7,4.98c-0.63,2.19-0.95,4.84-0.95,7.97c0,3.34,0.31,6.12,0.95,8.33
		c0.63,2.21,1.53,3.86,2.7,4.95C492.36,62.93,493.77,63.47,495.42,63.47z"/>
	<path class="st0" d="M527.74,68.75V28.16h13.81c3.17,0,5.77,0.54,7.79,1.63c2.02,1.09,3.52,2.52,4.5,4.3
		c0.98,1.78,1.47,3.78,1.47,5.99c0,1.61-0.27,3.12-0.81,4.53c-0.54,1.41-1.37,2.65-2.48,3.71c-1.11,1.07-2.5,1.9-4.17,2.51
		c-1.67,0.61-3.66,0.91-5.96,0.91h-6.65v17.01H527.74z M535.24,45.62h6.12c1.39,0,2.56-0.24,3.52-0.72
		c0.96-0.48,1.67-1.13,2.15-1.95c0.48-0.82,0.72-1.78,0.72-2.87c0-1.09-0.24-2.04-0.72-2.87c-0.48-0.82-1.18-1.48-2.12-1.95
		c-0.94-0.48-2.1-0.72-3.49-0.72h-6.19V45.62z"/>
	<path class="st0" d="M573.55,68.75V28.16H600v6h-19.29v10.43h15.83v6.06h-15.83v12.12h19.09v5.99H573.55z"/>
</g>
<path class="st0" d="M110.06,8.96L82.08,27.62L54.1,8.96L26.12,32.28v32.64l55.96,46.63l55.96-46.63V32.28L110.06,8.96z"/>
<polygon class="st0" points="2.66,64.64 15.69,64.64 15.69,28.15 9.18,28.15 2.66,28.15 "/>
<polygon class="st0" points="146.01,67.25 159.04,67.25 159.04,30.76 152.52,30.76 146.01,30.76 "/>
<polyline class="st1" points="5.27,33.37 36.54,2.09 125.16,2.09 156.43,33.37 "/>
</svg>
